<svg viewBox="0 0 25 25" fill="currentColor" xmlns="http://www.w3.org/2000/svg">
<path d="M2.90527 1.78223L1.78223 2.90527L6.64062 7.73926L15.3076 16.4062L16.7969 17.9199L22.0947 23.2178L23.2178 22.0947L18.3594 17.2363C21.6675 15.5975 23.8861 13.1653 24.0234 13.0127L24.4873 12.5L24.0234 11.9873C23.8129 11.7523 18.8171 6.25 12.5 6.25C10.9711 6.25 9.52759 6.58569 8.20312 7.08008L2.90527 1.78223ZM12.5 7.8125C14.1815 7.8125 15.7715 8.28552 17.1875 8.93555C17.691 9.77783 17.9688 10.73 17.9688 11.7188C17.9688 13.1378 17.4194 14.4348 16.5283 15.4053L14.3066 13.1836C14.6332 12.7838 14.8438 12.2772 14.8438 11.7188C14.8438 10.4248 13.7939 9.375 12.5 9.375C11.9415 9.375 11.4349 9.58557 11.0352 9.91211L9.44824 8.3252C10.4187 8.02612 11.4349 7.8125 12.5 7.8125ZM5.22461 8.52051C2.71912 10.0616 1.09253 11.8561 0.976562 11.9873L0.512695 12.5L0.976562 13.0127C1.17798 13.2385 5.80444 18.3014 11.7676 18.7012C12.0087 18.7256 12.2528 18.75 12.5 18.75C12.7472 18.75 12.9913 18.7256 13.2324 18.7012C13.8763 18.6584 14.505 18.573 15.1123 18.4326L13.7207 17.041C13.324 17.1326 12.9211 17.1875 12.5 17.1875C9.48486 17.1875 7.03125 14.7339 7.03125 11.7188C7.03125 11.3037 7.08618 10.8978 7.17773 10.498L5.22461 8.52051ZM5.66406 10.1074C5.53894 10.6354 5.46875 11.1725 5.46875 11.7188C5.46875 13.0768 5.85022 14.328 6.51855 15.4053C4.73023 14.3799 3.36304 13.1775 2.66113 12.5C3.24402 11.9354 4.29382 10.9985 5.66406 10.1074ZM19.3359 10.1074C20.7062 10.9985 21.7529 11.9354 22.3389 12.5C21.637 13.1775 20.2484 14.4043 18.457 15.4297C19.1284 14.3524 19.5312 13.0768 19.5312 11.7188C19.5312 11.1725 19.4611 10.6323 19.3359 10.1074Z" />
</svg>
