<svg viewBox="0 0 25 26" fill="currentColor" xmlns="http://www.w3.org/2000/svg">
<path d="M18.6768 3.60059C17.8589 3.60059 17.041 3.91797 16.4062 4.55273L4.05273 16.9062L4.00391 17.1504L3.14941 21.4473L2.90527 22.5947L4.05273 22.3506L8.34961 21.4961L8.59375 21.4473L20.9473 9.09375C22.2168 7.82422 22.2168 5.82227 20.9473 4.55273C20.3125 3.91797 19.4946 3.60059 18.6768 3.60059ZM18.6768 5.08984C19.0704 5.08984 19.4672 5.2699 19.8486 5.65137C20.6085 6.41125 20.6085 7.23523 19.8486 7.99512L19.2871 8.53223L16.9678 6.21289L17.5049 5.65137C17.8864 5.2699 18.2831 5.08984 18.6768 5.08984ZM15.8691 7.31152L18.1885 9.63086L8.74023 19.0791C8.22754 18.0781 7.42188 17.2725 6.4209 16.7598L15.8691 7.31152ZM5.41992 18.0293C6.35681 18.4077 7.09229 19.1432 7.4707 20.0801L4.90723 20.5928L5.41992 18.0293Z" />
</svg>
