<svg viewBox="0 0 25 25" fill="currentColor" xmlns="http://www.w3.org/2000/svg">
<path d="M12.5 3.90625C9.48792 3.90625 7.03125 6.36291 7.03125 9.375C7.03125 11.2579 7.99255 12.9303 9.44824 13.916C6.66199 15.1123 4.6875 17.8772 4.6875 21.0938H6.25C6.25 17.6331 9.03931 14.8438 12.5 14.8438C15.9607 14.8438 18.75 17.6331 18.75 21.0938H20.3125C20.3125 17.8772 18.338 15.1123 15.5518 13.916C17.0074 12.9303 17.9688 11.2579 17.9688 9.375C17.9688 6.36291 15.5121 3.90625 12.5 3.90625ZM12.5 5.46875C14.6667 5.46875 16.4062 7.20825 16.4062 9.375C16.4062 11.5417 14.6667 13.2812 12.5 13.2812C10.3333 13.2812 8.59375 11.5417 8.59375 9.375C8.59375 7.20825 10.3333 5.46875 12.5 5.46875Z" />
</svg>
